<mxfile host="" modified="2020-05-24T15:21:41.060Z" agent="5.0 (X11; Linux x86_64) AppleWebKit/537.36 (KHTML, like Gecko) Code/1.45.0 Chrome/78.0.3904.130 Electron/7.2.4 Safari/537.36" version="13.1.3" etag="lrwgP8mNOWNbAz78NI_h" pages="2">
            <diagram id="diagramid" name="Diagram">
              <mxGraphModel><root><mxCell id="0"/><mxCell id="1" parent="0"/><mxCell id="8" value="WildRydesFareProcessingTopic" style="outlineConnect=0;fontColor=#B3B3B3;gradientColor=#F34482;gradientDirection=north;fillColor=#BC1356;strokeColor=#ffffff;dashed=0;verticalLabelPosition=bottom;verticalAlign=top;align=center;html=1;fontSize=12;fontStyle=0;aspect=fixed;shape=mxgraph.aws4.resourceIcon;resIcon=mxgraph.aws4.sns;" vertex="1" parent="1"><mxGeometry x="250" y="100" width="50" height="50" as="geometry"/></mxCell><mxCell id="9" value="WildRydesFailedTransactionsQueue" style="outlineConnect=0;fontColor=#B3B3B3;gradientColor=#F34482;gradientDirection=north;fillColor=#BC1356;strokeColor=#ffffff;dashed=0;verticalLabelPosition=bottom;verticalAlign=top;align=center;html=1;fontSize=12;fontStyle=0;aspect=fixed;shape=mxgraph.aws4.resourceIcon;resIcon=mxgraph.aws4.sqs;" vertex="1" parent="1"><mxGeometry x="250" width="50" height="50" as="geometry"/></mxCell><mxCell id="10" value="WildRydesSuccessfulTransactionsQueue" style="outlineConnect=0;fontColor=#B3B3B3;gradientColor=#F34482;gradientDirection=north;fillColor=#BC1356;strokeColor=#ffffff;dashed=0;verticalLabelPosition=bottom;verticalAlign=top;align=center;html=1;fontSize=12;fontStyle=0;aspect=fixed;shape=mxgraph.aws4.resourceIcon;resIcon=mxgraph.aws4.sqs;" vertex="1" parent="1"><mxGeometry x="250" y="200" width="50" height="50" as="geometry"/></mxCell><mxCell id="12" value="WildRydesFaresFailedSubscription" style="outlineConnect=0;fontColor=#B3B3B3;gradientColor=#F34482;gradientDirection=north;fillColor=#BC1356;strokeColor=#ffffff;dashed=0;verticalLabelPosition=bottom;verticalAlign=top;align=center;html=1;fontSize=12;fontStyle=0;aspect=fixed;shape=mxgraph.aws4.resourceIcon;resIcon=mxgraph.aws4.sns;" vertex="1" parent="1"><mxGeometry y="50" width="50" height="50" as="geometry"/></mxCell><mxCell id="13" value="WildRydesFaresSuccessfulSubscription" style="outlineConnect=0;fontColor=#B3B3B3;gradientColor=#F34482;gradientDirection=north;fillColor=#BC1356;strokeColor=#ffffff;dashed=0;verticalLabelPosition=bottom;verticalAlign=top;align=center;html=1;fontSize=12;fontStyle=0;aspect=fixed;shape=mxgraph.aws4.resourceIcon;resIcon=mxgraph.aws4.sns;" vertex="1" parent="1"><mxGeometry y="150" width="50" height="50" as="geometry"/></mxCell><mxCell id="WildRydesFareProcessingTopic|WildRydesFaresFailedSubscription" value="TopicArn" style="edgeStyle=orthogonalEdgeStyle;rounded=1;orthogonalLoop=1;jettySize=auto;html=1;labelBackgroundColor=none;fontColor=#EA6B66;noEdgeStyle=1;orthogonal=1;" edge="1" parent="1" source="12" target="8"><mxGeometry relative="1" as="geometry"><Array as="points"><mxPoint x="62" y="85"/><mxPoint x="238" y="115"/></Array></mxGeometry></mxCell><mxCell id="WildRydesFailedTransactionsQueue|WildRydesFaresFailedSubscription" value="Endpoint" style="edgeStyle=orthogonalEdgeStyle;rounded=1;orthogonalLoop=1;jettySize=auto;html=1;labelBackgroundColor=none;fontColor=#EA6B66;noEdgeStyle=1;orthogonal=1;" edge="1" parent="1" source="12" target="9"><mxGeometry relative="1" as="geometry"><Array as="points"><mxPoint x="62" y="65"/><mxPoint x="238" y="25"/></Array></mxGeometry></mxCell><mxCell id="WildRydesFareProcessingTopic|WildRydesFaresSuccessfulSubscription" value="TopicArn" style="edgeStyle=orthogonalEdgeStyle;rounded=1;orthogonalLoop=1;jettySize=auto;html=1;labelBackgroundColor=none;fontColor=#EA6B66;noEdgeStyle=1;orthogonal=1;" edge="1" parent="1" source="13" target="8"><mxGeometry relative="1" as="geometry"><Array as="points"><mxPoint x="62" y="165"/><mxPoint x="238" y="135"/></Array></mxGeometry></mxCell><mxCell id="WildRydesSuccessfulTransactionsQueue|WildRydesFaresSuccessfulSubscription" value="Endpoint" style="edgeStyle=orthogonalEdgeStyle;rounded=1;orthogonalLoop=1;jettySize=auto;html=1;labelBackgroundColor=none;fontColor=#EA6B66;noEdgeStyle=1;orthogonal=1;" edge="1" parent="1" source="13" target="10"><mxGeometry relative="1" as="geometry"><Array as="points"><mxPoint x="62" y="185"/><mxPoint x="238" y="225"/></Array></mxGeometry></mxCell></root></mxGraphModel>
            </diagram>
          </mxfile>